<svg width="20" height="20" viewBox="0 0 20 20" fill="none" xmlns="http://www.w3.org/2000/svg">
<g clip-path="url(#clip0_1_597)">
<path d="M18.4375 1.50732H15V-0.680176H13.75V1.50732H6.25V-0.680176H5V1.50732H1.5625C1.31395 1.50761 1.07566 1.60648 0.899907 1.78223C0.724154 1.95798 0.625289 2.19627 0.625 2.44482V17.8125C0.625289 18.061 0.724154 18.2993 0.899907 18.4751C1.07566 18.6508 1.31395 18.7497 1.5625 18.75H18.4375C18.6861 18.7497 18.9243 18.6508 19.1001 18.4751C19.2758 18.2993 19.3747 18.061 19.375 17.8125V2.44482C19.3747 2.19627 19.2758 1.95798 19.1001 1.78223C18.9243 1.60648 18.6861 1.50761 18.4375 1.50732ZM18.125 17.5H1.875V2.75732H5V4.31982H6.25V2.75732H13.75V4.31982H15V2.75732H18.125V17.5Z" fill="black"/>
<path d="M4.375 8.75H5.625V10H4.375V8.75Z" fill="black"/>
<path d="M7.8125 8.75H9.0625V10H7.8125V8.75Z" fill="black"/>
<path d="M10.9375 8.75H12.1875V10H10.9375V8.75Z" fill="black"/>
<path d="M14.375 8.75H15.625V10H14.375V8.75Z" fill="black"/>
<path d="M4.375 11.5625H5.625V12.8125H4.375V11.5625Z" fill="black"/>
<path d="M7.8125 11.5625H9.0625V12.8125H7.8125V11.5625Z" fill="black"/>
<path d="M10.9375 11.5625H12.1875V12.8125H10.9375V11.5625Z" fill="black"/>
<path d="M14.375 11.5625H15.625V12.8125H14.375V11.5625Z" fill="black"/>
<path d="M4.375 14.375H5.625V15.625H4.375V14.375Z" fill="black"/>
<path d="M7.8125 14.375H9.0625V15.625H7.8125V14.375Z" fill="black"/>
<path d="M10.9375 14.375H12.1875V15.625H10.9375V14.375Z" fill="black"/>
<path d="M14.375 14.375H15.625V15.625H14.375V14.375Z" fill="black"/>
</g>
<defs>
<clipPath id="clip0_1_597">
<rect width="20" height="20" fill="white"/>
</clipPath>
</defs>
</svg>
