<svg width="20" height="20" viewBox="0 0 20 20" fill="none" xmlns="http://www.w3.org/2000/svg">
<path d="M18.4372 4.375H14.9529L14.3184 2.54883C14.2331 2.3036 14.0736 2.091 13.862 1.94052C13.6504 1.79003 13.3972 1.70911 13.1376 1.70898H6.84535C6.58432 1.70893 6.32983 1.79062 6.11759 1.94258C5.90536 2.09455 5.74604 2.30916 5.66199 2.55629L5.04297 4.375H1.5625C1.31395 4.37528 1.07565 4.47414 0.899896 4.6499C0.724141 4.82565 0.625279 5.06395 0.625 5.3125V17.5C0.625279 17.7486 0.724141 17.9868 0.899896 18.1626C1.07565 18.3384 1.31395 18.4372 1.5625 18.4375H18.4372C18.6858 18.4372 18.9241 18.3384 19.0998 18.1626C19.2756 17.9868 19.3744 17.7486 19.3747 17.5V5.3125C19.3744 5.06395 19.2756 4.82565 19.0998 4.6499C18.9241 4.47414 18.6858 4.37528 18.4372 4.375ZM18.1247 17.1875H1.87527V5.625H5.93816L6.84535 2.95898H13.1376L14.0638 5.625H18.1247V17.1875Z" fill="black"/>
<path d="M10 6.5625C9.11926 6.5625 8.25829 6.82367 7.52598 7.31299C6.79367 7.8023 6.2229 8.49779 5.88585 9.31149C5.5488 10.1252 5.46062 11.0206 5.63244 11.8844C5.80427 12.7482 6.22839 13.5417 6.85117 14.1645C7.47395 14.7872 8.26742 15.2114 9.13124 15.3832C9.99506 15.555 10.8904 15.4668 11.7041 15.1298C12.5178 14.7927 13.2133 14.222 13.7026 13.4896C14.192 12.7573 14.4531 11.8964 14.4531 11.0156C14.4518 9.835 13.9822 8.70311 13.1474 7.86827C12.3125 7.03344 11.1806 6.56384 10 6.5625ZM10 14.2188C9.36648 14.2188 8.74719 14.0309 8.22044 13.6789C7.69369 13.327 7.28314 12.8267 7.0407 12.2414C6.79826 11.6561 6.73483 11.0121 6.85842 10.3907C6.98202 9.76938 7.28709 9.19864 7.73505 8.75067C8.18302 8.30271 8.75376 7.99764 9.3751 7.87405C9.99645 7.75045 10.6405 7.81389 11.2258 8.05632C11.8111 8.29876 12.3113 8.70931 12.6633 9.23606C13.0153 9.76282 13.2031 10.3821 13.2031 11.0156C13.2022 11.8649 12.8644 12.679 12.2639 13.2795C11.6634 13.88 10.8492 14.2178 10 14.2188Z" fill="black"/>
</svg>
