<svg width="20" height="20" viewBox="0 0 20 20" fill="none" xmlns="http://www.w3.org/2000/svg">
<g clip-path="url(#clip0_1_517)">
<path d="M6.25 3.75152V5.00152H18.125V7.47594L16.7383 11.8765H5.85672L4.29422 0.625H0.625V1.875H3.20578L4.76828 13.1265H17.655L19.375 7.6682V3.75152H6.25Z" fill="black"/>
<path d="M6.91344 14.3884C6.25063 14.3892 5.61518 14.6528 5.1465 15.1215C4.67783 15.5902 4.41419 16.2256 4.41344 16.8884C4.41344 17.5515 4.67683 18.1874 5.14567 18.6562C5.61451 19.125 6.2504 19.3884 6.91344 19.3884C7.57648 19.3884 8.21236 19.125 8.6812 18.6562C9.15004 18.1874 9.41344 17.5515 9.41344 16.8884C9.41269 16.2256 9.14906 15.5902 8.68038 15.1215C8.2117 14.6528 7.57625 14.3892 6.91344 14.3884ZM6.91344 18.1384C6.66621 18.1384 6.42454 18.0651 6.21897 17.9278C6.01341 17.7904 5.8532 17.5952 5.75859 17.3668C5.66398 17.1384 5.63922 16.887 5.68746 16.6446C5.73569 16.4021 5.85474 16.1794 6.02955 16.0045C6.20437 15.8297 6.4271 15.7107 6.66957 15.6624C6.91205 15.6142 7.16338 15.639 7.39179 15.7336C7.6202 15.8282 7.81542 15.9884 7.95277 16.194C8.09013 16.3995 8.16344 16.6412 8.16344 16.8884C8.16304 17.2198 8.03122 17.5375 7.79689 17.7719C7.56255 18.0062 7.24484 18.138 6.91344 18.1384Z" fill="black"/>
<path d="M15.6634 14.3884C15.0006 14.3892 14.3652 14.6528 13.8965 15.1215C13.4278 15.5902 13.1642 16.2256 13.1634 16.8884C13.1634 17.5515 13.4268 18.1874 13.8957 18.6562C14.3645 19.125 15.0004 19.3884 15.6634 19.3884C16.3265 19.3884 16.9624 19.125 17.4312 18.6562C17.9 18.1874 18.1634 17.5515 18.1634 16.8884C18.1627 16.2256 17.8991 15.5902 17.4304 15.1215C16.9617 14.6528 16.3262 14.3892 15.6634 14.3884ZM15.6634 18.1384C15.4162 18.1384 15.1745 18.0651 14.969 17.9278C14.7634 17.7904 14.6032 17.5952 14.5086 17.3668C14.414 17.1384 14.3892 16.887 14.4375 16.6446C14.4857 16.4021 14.6047 16.1794 14.7796 16.0045C14.9544 15.8297 15.1771 15.7107 15.4196 15.6624C15.6621 15.6142 15.9134 15.639 16.1418 15.7336C16.3702 15.8282 16.5654 15.9884 16.7028 16.194C16.8401 16.3995 16.9134 16.6412 16.9134 16.8884C16.913 17.2198 16.7812 17.5375 16.5469 17.7719C16.3126 18.0062 15.9948 18.138 15.6634 18.1384Z" fill="black"/>
</g>
<defs>
<clipPath id="clip0_1_517">
<rect width="20" height="20" fill="white"/>
</clipPath>
</defs>
</svg>
