<svg width="20" height="20" viewBox="0 0 20 20" fill="none" xmlns="http://www.w3.org/2000/svg">
<g clip-path="url(#clip0_1_566)">
<path d="M16.6434 3.39564C14.8944 1.64664 12.5223 0.664063 10.0488 0.664062C7.57537 0.664063 5.20322 1.64664 3.45422 3.39564C1.70522 5.14464 0.722641 7.51679 0.722641 9.99025C0.722641 12.4637 1.70522 14.8359 3.45422 16.5849C5.20322 18.3339 7.57537 19.3164 10.0488 19.3164C12.5223 19.3164 14.8944 18.3339 16.6434 16.5849C18.3924 14.8359 19.375 12.4637 19.375 9.99025C19.375 7.51679 18.3924 5.14464 16.6434 3.39564ZM10.0488 18.0664C5.5957 18.0664 1.97266 14.4435 1.97266 9.99025C1.97266 5.53705 5.59562 1.91408 10.0488 1.91408C14.502 1.91408 18.125 5.53705 18.125 9.99025C18.125 14.4435 14.502 18.0664 10.0488 18.0664Z" fill="black"/>
<path d="M8.64336 11.9456L5.77567 9.07796L4.8918 9.96182L8.64336 13.7134L15.1863 7.17046L14.3024 6.28659L8.64336 11.9456Z" fill="black"/>
</g>
<defs>
<clipPath id="clip0_1_566">
<rect width="20" height="20" fill="white"/>
</clipPath>
</defs>
</svg>
