<svg width="20" height="20" viewBox="0 0 20 20" fill="none" xmlns="http://www.w3.org/2000/svg">
<g clip-path="url(#clip0_1_516)">
<path d="M3.75 5.7041V0.625H2.5V5.7041C1.96333 5.84272 1.48794 6.15573 1.14854 6.59394C0.80913 7.03215 0.624954 7.57072 0.624954 8.125C0.624954 8.67928 0.80913 9.21785 1.14854 9.65606C1.48794 10.0943 1.96333 10.4073 2.5 10.5459V19.375H3.75V10.5459C4.28666 10.4073 4.76206 10.0943 5.10146 9.65606C5.44087 9.21785 5.62504 8.67928 5.62504 8.125C5.62504 7.57072 5.44087 7.03215 5.10146 6.59394C4.76206 6.15573 4.28666 5.84272 3.75 5.7041ZM3.125 9.375C2.87777 9.375 2.6361 9.30169 2.43054 9.16434C2.22497 9.02699 2.06476 8.83176 1.97015 8.60335C1.87554 8.37495 1.85079 8.12361 1.89902 7.88114C1.94725 7.63866 2.0663 7.41593 2.24112 7.24112C2.41593 7.0663 2.63866 6.94725 2.88114 6.89902C3.12361 6.85079 3.37495 6.87554 3.60335 6.97015C3.83176 7.06476 4.02698 7.22498 4.16434 7.43054C4.30169 7.6361 4.375 7.87777 4.375 8.125C4.37463 8.45641 4.24281 8.77413 4.00847 9.00847C3.77413 9.24281 3.45641 9.37463 3.125 9.375Z" fill="black"/>
<path d="M10.625 11.3291V0.625H9.375V11.3291C8.83833 11.4677 8.36294 11.7807 8.02354 12.2189C7.68413 12.6572 7.49995 13.1957 7.49995 13.75C7.49995 14.3043 7.68413 14.8428 8.02354 15.2811C8.36294 15.7193 8.83833 16.0323 9.375 16.1709V19.375H10.625V16.1709C11.1617 16.0323 11.6371 15.7193 11.9765 15.2811C12.3159 14.8428 12.5 14.3043 12.5 13.75C12.5 13.1957 12.3159 12.6572 11.9765 12.2189C11.6371 11.7807 11.1617 11.4677 10.625 11.3291ZM10 15C9.75277 15 9.5111 14.9267 9.30554 14.7893C9.09997 14.652 8.93976 14.4568 8.84515 14.2284C8.75054 13.9999 8.72579 13.7486 8.77402 13.5061C8.82225 13.2637 8.9413 13.0409 9.11612 12.8661C9.29093 12.6913 9.51366 12.5722 9.75614 12.524C9.99861 12.4758 10.2499 12.5005 10.4784 12.5951C10.7068 12.6898 10.902 12.85 11.0393 13.0555C11.1767 13.2611 11.25 13.5028 11.25 13.75C11.2496 14.0814 11.1178 14.3991 10.8835 14.6335C10.6491 14.8678 10.3314 14.9996 10 15Z" fill="black"/>
<path d="M17.5 3.2041V0.625H16.25V3.2041C15.7133 3.34272 15.2379 3.65573 14.8985 4.09394C14.5591 4.53215 14.375 5.07072 14.375 5.625C14.375 6.17928 14.5591 6.71785 14.8985 7.15606C15.2379 7.59427 15.7133 7.90728 16.25 8.0459V19.375H17.5V8.0459C18.0367 7.90728 18.5121 7.59427 18.8515 7.15606C19.1909 6.71785 19.375 6.17928 19.375 5.625C19.375 5.07072 19.1909 4.53215 18.8515 4.09394C18.5121 3.65573 18.0367 3.34272 17.5 3.2041ZM16.875 6.875C16.6278 6.875 16.3861 6.80169 16.1805 6.66434C15.975 6.52699 15.8148 6.33176 15.7201 6.10335C15.6255 5.87495 15.6008 5.62361 15.649 5.38114C15.6972 5.13866 15.8163 4.91593 15.9911 4.74112C16.1659 4.5663 16.3887 4.44725 16.6311 4.39902C16.8736 4.35079 17.1249 4.37554 17.3534 4.47015C17.5818 4.56476 17.777 4.72498 17.9143 4.93054C18.0517 5.1361 18.125 5.37777 18.125 5.625C18.1246 5.95641 17.9928 6.27413 17.7585 6.50847C17.5241 6.74281 17.2064 6.87463 16.875 6.875Z" fill="black"/>
</g>
<defs>
<clipPath id="clip0_1_516">
<rect width="20" height="20" fill="white"/>
</clipPath>
</defs>
</svg>
