<svg width="20" height="20" viewBox="0 0 20 20" fill="none" xmlns="http://www.w3.org/2000/svg">
<g clip-path="url(#clip0_1_557)">
<path d="M18.068 12.3555L15.5546 10.7109L16.5223 8.93678C16.7557 8.49379 16.878 8.00071 16.8786 7.49999V4.68749C16.8806 3.89667 16.6515 3.1225 16.2196 2.46004C15.7877 1.79758 15.1718 1.27567 14.4474 0.958399C13.723 0.641126 12.9217 0.542303 12.142 0.674064C11.3622 0.805826 10.6379 1.16244 10.058 1.7001L10.9075 2.61717C11.3093 2.24564 11.8109 1.99943 12.3506 1.90874C12.8903 1.81804 13.4447 1.88681 13.9459 2.10659C14.4471 2.32638 14.8733 2.68764 15.1722 3.14608C15.4711 3.60452 15.6297 4.14021 15.6286 4.68749V7.49999C15.6285 7.79156 15.5587 8.07887 15.4249 8.33796L13.9048 11.125L17.3836 13.4013C17.6132 13.5516 17.8017 13.7569 17.9318 13.9985C18.0619 14.2402 18.1296 14.5105 18.1286 14.7849V16.875H15.3161V18.125H19.3786V14.7849C19.3799 14.3028 19.2607 13.8281 19.0318 13.4038C18.8029 12.9795 18.4716 12.6191 18.068 12.3555Z" fill="black"/>
<path d="M12.443 13.6055L9.92961 11.961L10.8973 10.1868C11.1307 9.74382 11.253 9.25074 11.2536 8.75002V5.93752C11.2528 4.85948 10.8244 3.82578 10.0624 3.0632C9.30046 2.30062 8.2671 1.87143 7.18906 1.86978C4.95012 1.86978 3.12863 3.69459 3.12863 5.93752V8.75002C3.12625 9.25051 3.24719 9.74389 3.48078 10.1865L4.45375 11.9703L1.95496 13.6055C1.55184 13.8688 1.22084 14.2285 0.992002 14.6521C0.763162 15.0757 0.643725 15.5498 0.644531 16.0313L0.625 19.375H13.7536V16.0349C13.7549 15.5529 13.6357 15.0781 13.4068 14.6538C13.1779 14.2295 12.8466 13.8692 12.443 13.6055ZM12.5036 18.125H1.88227L1.89437 16.0349C1.89343 15.7605 1.96109 15.4902 2.09121 15.2485C2.22132 15.0069 2.40977 14.8016 2.63941 14.6513L6.10355 12.3845L4.57812 9.58798C4.44588 9.32852 4.37749 9.04123 4.37863 8.75002V5.93752C4.37863 5.19159 4.67495 4.47622 5.20239 3.94878C5.72984 3.42133 6.44521 3.12502 7.19113 3.12502C7.93705 3.12502 8.65242 3.42133 9.17987 3.94878C9.70732 4.47622 10.0036 5.19159 10.0036 5.93752V8.75002C10.0035 9.04159 9.93367 9.3289 9.79992 9.58798L8.27977 12.375L11.7586 14.6513C11.9882 14.8016 12.1767 15.0069 12.3068 15.2486C12.4369 15.4902 12.5046 15.7605 12.5036 16.035V18.125Z" fill="black"/>
</g>
<defs>
<clipPath id="clip0_1_557">
<rect width="20" height="20" fill="white"/>
</clipPath>
</defs>
</svg>
