<svg width="16" height="14" viewBox="0 0 16 14" fill="none" xmlns="http://www.w3.org/2000/svg">
<path d="M12.6593 0.409906C13.1448 0.61093 13.586 0.90567 13.9576 1.27728L14.1736 1.49319C14.9226 2.24393 15.3433 3.26112 15.3433 4.32161C15.3433 5.3821 14.9226 6.39929 14.1736 7.15003L8.43508 12.8886L7.83208 13.5248L7.81543 13.5082L7.80008 13.5235L7.15649 12.8492L1.45733 7.15013C0.707192 6.39998 0.285767 5.38257 0.285767 4.3217C0.285767 3.26084 0.707192 2.24343 1.45733 1.49328L1.67327 1.27734C2.04471 0.905907 2.48566 0.611266 2.97097 0.410246C3.45627 0.209225 3.97642 0.105761 4.50171 0.105761C5.027 0.105761 5.54715 0.209225 6.03245 0.410246C6.51775 0.611266 6.95871 0.905907 7.33015 1.27734L7.33327 1.28047L7.81396 1.77003L8.29868 1.27941C8.67001 0.907516 9.11099 0.612445 9.59641 0.411057C10.0818 0.209668 10.6022 0.105911 11.1277 0.105713C11.6533 0.105516 12.1737 0.208883 12.6593 0.409906Z" fill="#FF8527"/>
</svg>
