<svg width="20" height="20" viewBox="0 0 20 20" fill="none" xmlns="http://www.w3.org/2000/svg">
<path d="M17.7001 3.08641C17.2356 2.62189 16.6841 2.25347 16.0771 2.00219C15.4701 1.75091 14.8196 1.6217 14.1627 1.62195C13.5058 1.6222 12.8553 1.75189 12.2485 2.00363C11.6418 2.25536 11.0905 2.6242 10.6264 3.08907L10.0205 3.70235L9.41961 3.09039L9.4157 3.08649C8.95141 2.62219 8.40021 2.25389 7.79358 2.00261C7.18695 1.75134 6.53677 1.62201 5.88016 1.62201C5.22355 1.62201 4.57336 1.75134 3.96673 2.00261C3.3601 2.25389 2.8089 2.62219 2.34461 3.08649L2.07469 3.35641C1.13701 4.29409 0.610229 5.56586 0.610229 6.89194C0.610229 8.21802 1.13701 9.48978 2.07469 10.4275L9.19863 17.5513L10.0031 18.3942L10.0223 18.375L10.0431 18.3958L10.7969 17.6005L17.97 10.4273C18.9063 9.48892 19.4321 8.21743 19.4321 6.89182C19.4321 5.56621 18.9063 4.29472 17.97 3.35629L17.7001 3.08641ZM17.0859 9.54348L10.0223 16.6073L2.95852 9.54348C2.25526 8.84022 1.86018 7.8864 1.86018 6.89184C1.86018 5.89728 2.25526 4.94346 2.95852 4.2402L3.22848 3.97028C3.93139 3.26737 4.88464 2.87231 5.87871 2.87194C6.87278 2.87156 7.82632 3.2659 8.52977 3.96828L10.0178 5.4834L11.5129 3.97028C11.8611 3.62205 12.2745 3.34583 12.7294 3.15737C13.1844 2.96891 13.6721 2.87192 14.1645 2.87192C14.657 2.87192 15.1446 2.96891 15.5996 3.15737C16.0546 3.34583 16.468 3.62205 16.8162 3.97028L17.0861 4.24016C17.7883 4.944 18.1826 5.89763 18.1826 6.89185C18.1826 7.88607 17.7882 8.83968 17.0859 9.54348Z" fill="black"/>
</svg>
