<svg width="20" height="20" viewBox="0 0 20 20" fill="none" xmlns="http://www.w3.org/2000/svg">
<path d="M18.3463 8.45507L10.589 1.31832C10.3368 1.08631 10.0047 0.960744 9.66211 0.967879C9.31951 0.975013 8.99293 1.11429 8.75063 1.3566L1.61613 8.49113L1.25 8.85722V19.375H8.125V12.8125H11.875V19.375H18.75V8.82648L18.3463 8.45507ZM9.68898 2.21761C9.7 2.21761 9.6932 2.22 9.68848 2.22464C9.68359 2.22 9.67797 2.21761 9.68898 2.21761ZM17.5 18.125H13.125V12.8125C13.125 12.481 12.9933 12.163 12.7589 11.9286C12.5245 11.6942 12.2065 11.5625 11.875 11.5625H8.125C7.79348 11.5625 7.47554 11.6942 7.24112 11.9286C7.0067 12.163 6.875 12.481 6.875 12.8125V18.125H2.5V9.375L9.68898 2.24046C9.68949 2.24 9.68953 2.23957 9.68992 2.2391L17.5 9.375V18.125Z" fill="black"/>
</svg>
