<svg width="25" height="25" viewBox="0 0 25 25" fill="none" xmlns="http://www.w3.org/2000/svg">
<path d="M1.89021 23.1973L1.89429 23.2014C2.00243 23.3103 2.13104 23.3968 2.27272 23.4559C2.4144 23.5149 2.56635 23.5454 2.71985 23.5455C2.84901 23.5454 2.97728 23.5241 3.09954 23.4825L9.75607 21.2244L22.5295 8.45098C23.3104 7.67003 23.749 6.61088 23.749 5.50651C23.7489 4.40213 23.3102 3.34301 22.5293 2.56214C21.7483 1.78127 20.6891 1.3426 19.5848 1.34265C18.4804 1.3427 17.4213 1.78146 16.6404 2.5624L3.86698 15.3358L1.6091 21.9922C1.53798 22.1992 1.52663 22.422 1.57634 22.6352C1.62606 22.8483 1.73484 23.0431 1.89021 23.1973ZM17.7011 3.62304C18.2014 3.1266 18.878 2.84862 19.5828 2.84997C20.2875 2.85133 20.9631 3.1319 21.4614 3.63026C21.9598 4.12862 22.2403 4.80414 22.2417 5.50892C22.243 6.21369 21.965 6.89028 21.4685 7.39052L19.7888 9.07024L16.0213 5.30276L17.7011 3.62304ZM5.17526 16.1489L14.9607 6.3634L18.7282 10.1309L8.94269 19.9163L3.2411 21.8505L5.17526 16.1489Z" fill="black"/>
</svg>
