<svg width="20" height="20" viewBox="0 0 20 20" fill="none" xmlns="http://www.w3.org/2000/svg">
<path d="M8.75 6.25H6.875V1.875H5.625V6.25H3.75V1.875H2.5V6.71875C2.5 8.49629 3.85371 9.97629 5.625 10.2623V18.4375H6.875V10.2623C8.64629 9.97629 10 8.49629 10 6.71875V1.875H8.75V6.25ZM6.25 9.0625C5.16363 9.0625 4.23734 8.4093 3.89336 7.5H8.60664C8.26266 8.4093 7.33637 9.0625 6.25 9.0625Z" fill="black"/>
<path d="M16.155 1.5698C14.8763 1.7665 13.7103 2.4144 12.8679 3.39627C12.0256 4.37814 11.5625 5.62911 11.5625 6.9228V13.4375H15.625V18.4375H16.875V1.45901L16.155 1.5698ZM15.625 12.1875H12.8125V6.9228C12.8082 6.05371 13.0776 5.2053 13.5824 4.49782C14.0871 3.79033 14.8018 3.25965 15.625 2.98097V12.1875Z" fill="black"/>
</svg>
