<svg width="20" height="20" viewBox="0 0 20 20" fill="none" xmlns="http://www.w3.org/2000/svg">
<path d="M4.9468 7.91688H2.03071C1.8098 7.91584 1.59522 7.99066 1.42286 8.12884C1.2505 8.26702 1.13079 8.46018 1.08375 8.67602C0.488164 11.3303 0.468637 14.0814 1.02649 16.7438L1.08508 17.0246C1.13118 17.2426 1.25062 17.4382 1.42348 17.5788C1.59634 17.7194 1.81218 17.7965 2.035 17.7973H4.94699C5.20422 17.797 5.45083 17.6947 5.63271 17.5128C5.81459 17.3309 5.9169 17.0843 5.91719 16.827V8.88708C5.9169 8.62982 5.81456 8.38318 5.63264 8.2013C5.45071 8.01941 5.20406 7.91712 4.9468 7.91688ZM4.66699 16.5473H2.26235L2.25028 16.4892C1.74418 14.0744 1.74629 11.5808 2.25645 9.16688H4.66699V16.5473Z" fill="black"/>
<path d="M19.3148 10.8314L18.4519 8.53038C18.3838 8.35052 18.2627 8.19556 18.1047 8.08601C17.9466 7.97646 17.759 7.91748 17.5667 7.91686H12.9687V6.76315L13.3427 5.93503C13.5299 5.52058 13.633 5.07315 13.6463 4.61859C13.6595 4.16404 13.5825 3.71136 13.4198 3.28673C13.2571 2.86209 13.0118 2.4739 12.6982 2.1446C12.3846 1.81529 12.0089 1.55139 11.5927 1.36815C11.3651 1.26905 11.1078 1.26303 10.8758 1.35138C10.6439 1.43974 10.4557 1.61543 10.3518 1.84081L7.21457 8.70846V9.68749H8.14156L11.3555 2.65163C11.8092 2.9313 12.1455 3.36661 12.3016 3.87621C12.4576 4.3858 12.4228 4.93479 12.2036 5.42057L11.7742 6.37139L11.7187 6.62858V8.54186L12.3437 9.16686H17.3555L18.125 11.2187V11.5809L15.4692 16.2485H10.5887L7.21457 14.2692V15.7184L10.0273 17.3685C10.1725 17.4536 10.3376 17.4985 10.5059 17.4985H15.6465C15.8134 17.4983 15.9773 17.454 16.1216 17.3701C16.2659 17.2862 16.3855 17.1656 16.4682 17.0206L19.2514 12.1289C19.3323 11.9864 19.3749 11.8253 19.375 11.6614V11.1634C19.3751 11.05 19.3547 10.9375 19.3148 10.8314Z" fill="black"/>
</svg>
