<svg width="20" height="20" viewBox="0 0 20 20" fill="none" xmlns="http://www.w3.org/2000/svg">
<path d="M3.75 18.4375C3.74812 18.6839 3.84404 18.9209 4.0167 19.0967C4.18937 19.2724 4.42469 19.3725 4.67105 19.375H15.3289C15.5753 19.3725 15.8106 19.2724 15.9833 19.0967C16.156 18.9209 16.2519 18.6839 16.25 18.4375V5.9375H3.75V18.4375ZM5 7.1875H15V18.125H5V7.1875Z" fill="black"/>
<path d="M6.5625 8.4375H7.8125V16.25H6.5625V8.4375Z" fill="black"/>
<path d="M9.375 8.4375H10.625V16.25H9.375V8.4375Z" fill="black"/>
<path d="M12.1875 8.4375H13.4375V16.25H12.1875V8.4375Z" fill="black"/>
<path d="M12.8125 3.4375V1.5625C12.8125 1.0368 12.4419 0.625 11.9688 0.625H8.03125C7.55813 0.625 7.1875 1.0368 7.1875 1.5625V3.4375H2.5V4.6875H17.5V3.4375H12.8125ZM8.4375 1.875H11.5625V3.4375H8.4375V1.875Z" fill="black"/>
</svg>
