<svg width="20" height="20" viewBox="0 0 20 20" fill="none" xmlns="http://www.w3.org/2000/svg">
<g clip-path="url(#clip0_1_537)">
<path d="M13.5965 5.51959L10.1683 8.94783L6.74005 5.51959L5.85614 6.40346L9.28442 9.8317L5.85614 13.26L6.74005 14.1439L10.1683 10.7156L13.5965 14.1439L14.4804 13.26L11.0522 9.8317L14.4804 6.40346L13.5965 5.51959Z" fill="black"/>
<path d="M16.6291 3.37085C14.871 1.61269 12.4864 0.624969 10 0.624969C7.5136 0.62497 5.12902 1.61269 3.37086 3.37085C1.61271 5.12901 0.624985 7.51358 0.624985 9.99999C0.624985 12.4864 1.61271 14.871 3.37086 16.6291C5.12902 18.3873 7.5136 19.375 10 19.375C12.4864 19.375 14.871 18.3873 16.6291 16.6291C18.3873 14.871 19.375 12.4864 19.375 9.99999C19.375 7.51358 18.3873 5.12901 16.6291 3.37085ZM10 18.125C5.51989 18.125 1.87501 14.4801 1.87501 9.99999C1.87501 5.51987 5.51989 1.87499 10 1.87499C14.4801 1.87499 18.125 5.51987 18.125 9.99999C18.125 14.4801 14.4801 18.125 10 18.125Z" fill="black"/>
</g>
<defs>
<clipPath id="clip0_1_537">
<rect width="20" height="20" fill="white"/>
</clipPath>
</defs>
</svg>
